<svg width="240" height="240" viewBox="0 0 240 240" fill="none" xmlns="http://www.w3.org/2000/svg">
  <rect width="240" height="240" rx="120" fill="#FFF6F3"/>
  <circle cx="81" cy="88" r="34" fill="#FFD8C9"/>
  <circle cx="156" cy="82" r="30" fill="#F7C7A8"/>
  <path d="M54 176C54 150.49 74.4903 130 100 130H108C133.51 130 154 150.49 154 176V181H54V176Z" fill="#FF7F86"/>
  <path d="M120 178C120 152.042 141.042 131 167 131H169C194.958 131 216 152.042 216 178V181H120V178Z" fill="#F2A53D"/>
  <path d="M63 82C63 67.0883 75.0883 55 90 55H91C105.912 55 118 67.0883 118 82V89H63V82Z" fill="#2E1F28"/>
  <path d="M129 75C129 61.1929 140.193 50 154 50H155C168.807 50 180 61.1929 180 75V83H129V75Z" fill="#2E1F28"/>
  <path d="M78 143L68 181H115L105 143C98.8246 148.252 90.2018 151.303 81.5 151.303C80.3196 151.303 79.1517 151.247 78 151.139V143Z" fill="#FFF2ED"/>
  <path d="M144 145L139 181H191L187 144C181.861 148.344 174.882 150.956 167.294 150.956C159.222 150.956 151.839 148.002 146.166 143.118L144 145Z" fill="#FFF2ED"/>
  <circle cx="85" cy="89" r="3.5" fill="#2E1F28"/>
  <circle cx="100" cy="89" r="3.5" fill="#2E1F28"/>
  <circle cx="150" cy="84" r="3.5" fill="#2E1F28"/>
  <circle cx="164" cy="84" r="3.5" fill="#2E1F28"/>
  <path d="M86 103C90.5 107.667 96.5 107.667 101 103" stroke="#C8656E" stroke-width="3" stroke-linecap="round"/>
  <path d="M150 97C154.333 101 160 101 164 97" stroke="#C98659" stroke-width="3" stroke-linecap="round"/>
  <path d="M31 64C41.6667 65 47.3333 59.3333 48 47" stroke="#F2A53D" stroke-width="5" stroke-linecap="round"/>
  <path d="M204 48C204.667 60.3333 210.333 66 221 65" stroke="#FF7F86" stroke-width="5" stroke-linecap="round"/>
</svg>
