<svg width="321" height="340" viewBox="0 0 321 340" fill="none" xmlns="http://www.w3.org/2000/svg">
<g clip-path="url(#clip0_899_115)">
<rect width="321" height="340" fill="white"/>
<rect y="26" width="321" height="321" rx="52" fill="white"/>
<path d="M176.349 67.3179H227.437V252H176.349V170.771H132.414V252H81.3263V67.3179H132.414V139.352H176.349V67.3179Z" fill="#23193C"/>
<path d="M203 106C203 106 204.566 140.181 218.362 154.068C229.42 165.201 255 170 255 170C255 170 229.468 174.357 218.362 185.304C204.259 199.205 203 234 203 234C203 234 201.742 199.205 187.639 185.304C176.532 174.357 151 170 151 170C151 170 176.58 165.201 187.639 154.068C201.434 140.181 203 106 203 106Z" fill="#F86C70"/>
<path d="M152 106C152 106 152.663 120.687 158.499 126.654C163.178 131.438 174 133.5 174 133.5C174 133.5 163.198 135.372 158.499 140.076C152.532 146.049 152 161 152 161C152 161 151.468 146.049 145.501 140.076C140.802 135.372 130 133.5 130 133.5C130 133.5 140.822 131.438 145.501 126.654C151.337 120.687 152 106 152 106Z" fill="#FFAC30"/>
</g>
<defs>
<clipPath id="clip0_899_115">
<rect width="321" height="340" fill="white"/>
</clipPath>
</defs>
</svg>
